<svg xmlns="http://www.w3.org/2000/svg" viewBox="0 0 150.027 200"><defs><style>.a{fill:#303233;}.b{fill:#333;}.c{fill:#4d4d4d;}</style></defs><title>trigrey</title><rect class="a" x="0.027" width="150" height="200"/><polygon class="b" points="150 39.954 74.973 79.909 74.973 0 150 39.954"/><polygon class="c" points="74.973 79.914 150 119.869 150 39.96 74.973 79.914"/><polygon class="b" points="75.027 79.914 0 39.96 0 119.869 75.027 79.914"/><polygon class="c" points="0 39.954 75.027 0 75.027 79.909 0 39.954"/><polygon class="b" points="150 119.869 74.973 159.823 74.973 79.914 150 119.869"/><polygon class="c" points="0 119.869 75.027 79.914 75.027 159.823 0 119.869"/><polygon class="c" points="74.973 159.823 150 199.777 150 119.869 74.973 159.823"/><polygon class="b" points="75.054 159.823 0.027 119.869 0.027 199.777 75.054 159.823"/></svg>